<svg width="715" height="308" viewBox="0 0 715 308" fill="none" xmlns="http://www.w3.org/2000/svg">
<path d="M682.238 0.358093C679.293 0.981775 676.73 2.92212 675.274 5.69405C674.027 8.08483 673.958 12.2427 675.101 14.4256C676.348 16.7471 677.526 17.9252 679.778 19.0339C684.906 21.598 690.83 19.5883 693.256 14.4256C696.755 7.01071 690.276 -1.27041 682.238 0.358093ZM688.267 2.15984C691.454 3.64975 693.464 7.39185 693.117 11.1339C692.355 19.6923 680.575 22.1177 676.487 14.5988C675.309 12.4506 674.997 10.2677 675.552 8.01553C676.868 2.54098 683.035 -0.30024 688.267 2.15984Z" fill="white"/>
<path d="M683.346 4.34236C683.173 4.41166 682.584 4.55026 682.064 4.6542L681.094 4.8621V10.5445C681.094 16.0537 681.128 16.227 681.787 16.0537C682.341 15.9151 682.48 15.5686 682.48 14.4252C682.48 13.1779 682.653 12.9007 683.658 12.2423L684.836 11.4801L685.944 13.1779C686.637 14.252 687.295 14.9103 687.711 14.9103C688.577 14.9103 688.577 14.841 687.157 12.7274C686.499 11.7573 685.944 10.8217 685.944 10.6831C685.944 10.5445 686.325 9.85156 686.81 9.15858C687.919 7.53007 687.919 6.10946 686.81 5.03534C686.048 4.23841 684.524 3.92657 683.346 4.34236ZM685.736 5.76297C686.81 6.80244 686.429 8.327 684.732 9.95551C683.865 10.7871 682.999 11.4454 682.826 11.4454C682.618 11.4454 682.48 10.198 682.48 8.53489C682.48 5.31253 682.306 5.58973 684.801 5.24324C685.009 5.24324 685.459 5.45113 685.736 5.76297Z" fill="white"/>
<path d="M657.187 5.00124C653.098 5.83281 646.273 7.18411 642.046 7.98105L634.32 9.5056V89.6835V169.861L635.117 169.688C635.533 169.584 653.272 166.119 674.51 161.996C695.748 157.873 713.486 154.408 713.937 154.304L714.699 154.131V139.439C714.699 131.366 714.56 124.748 714.422 124.748C714.248 124.748 703.266 126.862 690.031 129.426C676.762 131.99 665.744 134.104 665.536 134.104C665.259 134.104 665.155 116.814 665.155 68.7901C665.155 32.8591 665.051 3.47667 664.913 3.51132C664.739 3.51132 661.275 4.2043 657.187 5.00124Z" fill="white"/>
<path d="M554.814 23.607C543.728 24.7504 531.221 29.2894 521.728 35.5956C503.088 47.9653 490.442 68.131 487.636 90.0292C487.012 94.9493 486.908 103.82 487.463 108.74C489.022 123.084 494.288 134.622 503.538 143.978C507.835 148.309 508.458 148.863 512.72 151.635C525.539 160.02 540.402 163 556.547 160.436C586.308 155.654 610.906 132.682 618.182 102.884C619.741 96.4393 620.261 91.8656 620.261 84.5546C620.261 76.9665 619.672 71.9077 618.043 65.7056C613.886 49.6631 603.111 36.5657 588.075 29.2894C577.889 24.3693 566.421 22.3943 554.814 23.607ZM561.397 54.41C565.693 54.9297 568.153 55.588 571.791 57.3205C590.708 66.2599 595.316 93.4248 581.284 113.313C575.221 121.941 565.104 128.316 554.918 129.945C551.523 130.499 544.178 130.222 541.129 129.425C535.898 128.039 530.354 124.748 526.821 120.971C523.079 116.882 520.619 112.343 519.06 106.453C518.263 103.473 518.159 102.399 518.124 97.0283C518.09 90.5836 518.506 87.7077 520.134 82.8915C523.079 74.2985 529.038 66.2253 536.071 61.3744C541.199 57.8402 548.266 55.103 553.948 54.4446C557.621 54.0288 557.933 54.0288 561.397 54.41Z" fill="white"/>
<path d="M422.288 51.1875C418.962 51.43 415.22 52.0884 395.714 55.8651L375.516 59.7458V139.889C375.516 183.963 375.585 220.032 375.654 220.032C375.724 220.032 382.583 218.716 390.933 217.087C399.283 215.459 406.247 214.142 406.42 214.142C406.558 214.142 406.697 184.69 406.697 148.69V83.2378L413.384 81.9558C423.604 79.9462 428.766 80.0848 434.067 82.5795C443.872 87.1878 445.882 101.325 438.779 115.912C435.349 122.876 430.811 128.732 421.491 138.053L414.25 145.294L416.086 147.928C419.308 152.571 425.579 160.817 429.425 165.46C434.483 171.524 444.669 181.641 450.178 186.076C463.932 197.06 478.068 203.782 493.139 206.415C497.504 207.177 511.743 207.281 516.005 206.588C519.4 206.034 525.914 204.613 528.27 203.886L530.036 203.366V187.809C530.036 179.216 529.967 172.217 529.933 172.217C529.863 172.217 527.403 172.84 524.459 173.568C516.49 175.612 512.194 176.167 505.958 175.924C500.102 175.681 495.806 174.919 490.194 173.048C478.587 169.202 466.08 160.367 455.444 148.517L452.707 145.468L454.093 144.012C458.146 139.82 463.586 132.058 466.531 126.307C473.564 112.482 475.4 97.0282 471.693 82.4409C466.184 60.6813 448.064 49.2125 422.288 51.1875Z" fill="white"/>
<path d="M352.827 64.1461C350.228 64.6658 276.467 79.0105 276.259 79.0105C276.155 79.0105 276.086 115.115 276.086 159.223V239.436L276.883 239.262C277.888 239.02 356.049 223.843 356.291 223.843C356.395 223.843 356.465 217.226 356.465 209.118C356.465 197.51 356.361 194.392 356.014 194.392C355.806 194.392 344.754 196.505 331.519 199.069C318.285 201.633 307.337 203.747 307.198 203.747C307.025 203.747 306.921 194.738 306.921 183.72V163.727L316.379 161.891C321.541 160.886 330.688 159.119 336.647 157.941L347.457 155.827V141.691C347.457 133.895 347.422 127.519 347.387 127.519C347.318 127.519 338.241 129.286 327.189 131.435L307.094 135.35L306.99 119.099C306.955 110.125 306.955 102.78 306.99 102.71C307.059 102.676 317.869 100.528 331 97.9635L354.905 93.3206L355.009 78.5601C355.079 66.8141 355.009 63.765 354.663 63.7996C354.42 63.8342 353.589 63.9728 352.827 64.1461Z" fill="white"/>
<path d="M113.317 92.3163L91.0396 96.8553L88.268 100.147C82.6207 106.8 78.5325 111.997 73.682 118.65C70.0788 123.604 64.0158 132.544 60.6205 137.914C59.5811 139.543 58.4032 141.414 57.9874 142.072C54.7653 147.027 46.381 162.203 41.9463 171.039C22.3021 210.158 8.06262 254.647 1.16808 298.339C-0.252404 307.452 -0.28705 308.18 0.579099 307.972C0.890912 307.868 8.85948 306.274 18.2139 304.368L35.2597 300.938L35.5022 299.379C37.3038 286.455 42.8125 259.394 43.8172 258.528C43.9905 258.389 57.2945 255.721 73.4049 252.603C89.5152 249.519 102.889 246.886 103.131 246.782C103.443 246.678 103.547 250.836 103.547 266.878V287.113L120.281 283.752C129.462 281.881 137.015 280.357 137.084 280.322C137.119 280.322 137.153 236.976 137.153 183.998V87.6733L136.391 87.7079C135.941 87.7426 125.582 89.7869 113.317 92.3163ZM105.626 140.236C105.071 160.713 103.893 209.88 103.893 212.479V214.697L88.0601 217.746C79.3293 219.444 68.3119 221.592 63.5654 222.493C58.7843 223.428 54.6268 224.19 54.3149 224.19C53.8299 224.19 54.0378 223.394 55.5622 219.236C66.6835 189.299 82.0663 159.57 99.4932 134.449C104.17 127.693 105.66 125.718 105.868 125.891C105.937 125.995 105.868 132.44 105.626 140.236Z" fill="white"/>
<path d="M208.596 92.5585C204.854 92.9396 202.36 93.3901 179.875 97.7558L163.141 101.013V181.121C163.141 225.195 163.21 261.265 163.314 261.265C163.452 261.265 188.571 256.414 192.174 255.686L193.976 255.34V240.371V225.403L196.158 224.052C200.142 221.522 208.319 215.805 213.55 211.89C246.603 187.116 262.401 161.995 261.05 136.528C260.149 120.312 254.744 108.462 244.732 100.909C239.881 97.2361 232.432 94.1523 225.78 93.0436C221.727 92.3506 212.823 92.108 208.596 92.5585ZM217.812 122.53C222.697 123.604 226.369 126.445 228.414 130.742C230.007 134.068 230.492 137.013 230.25 142.384C230.007 149.002 228.102 154.788 224.014 161.406C218.574 170.276 210.086 178.835 198.722 186.908C196.643 188.398 194.738 189.68 194.461 189.784C194.045 189.922 193.976 185.141 193.976 157.248V124.54L201.009 123.258C210.259 121.56 212.892 121.456 217.812 122.53Z" fill="white"/>
</svg>
